<svg xmlns="http://www.w3.org/2000/svg" viewBox="0 0 25 25"><path d="M22.5 3H21V2a1 1 0 0 0-1-1h-1a1 1 0 0 0-1 1v1h-4V2a1 1 0 0 0-1-1h-1a1 1 0 0 0-1 1v1H7V2a1 1 0 0 0-1-1H5a1 1 0 0 0-1 1v1H2.5A1.5 1.5 0 0 0 1 4.5v18A1.5 1.5 0 0 0 2.5 24h20a1.5 1.5 0 0 0 1.5-1.5v-18A1.5 1.5 0 0 0 22.5 3zM19 2h1v3h-1zm-7 0h1v3h-1zM5 2h1v3H5zM2.5 4H4v1a1 1 0 0 0 1 1h1a1 1 0 0 0 1-1V4h4v1a1 1 0 0 0 1 1h1a1 1 0 0 0 1-1V4h4v1a1 1 0 0 0 1 1h1a1 1 0 0 0 1-1V4h1.5a.5.5 0 0 1 .5.5V8H2V4.5a.5.5 0 0 1 .5-.5zm20 19h-20a.5.5 0 0 1-.5-.5V9h21v13.5a.5.5 0 0 1-.5.5z" style="fill:#231f20"/></svg>