<svg xmlns="http://www.w3.org/2000/svg" xml:space="preserve" width="2048" height="2048" style="shape-rendering:geometricPrecision;text-rendering:geometricPrecision;image-rendering:optimizeQuality;fill-rule:evenodd;clip-rule:evenodd"><defs><style>.fil0{fill:none}.fil1{fill:#212121;fill-rule:nonzero}</style></defs><g id="Layer_x0020_1"><path class="fil0" d="M0 0h2048v2048H0z"/><g id="_445079640"><path id="_445080840" class="fil0" d="M255.996 255.996h1536v1536h-1536z"/><path id="_445084176" class="fil1" d="M1024 257.442c211.975 0 403.933 85.804 542.924 224.525 139.054 138.784 225.063 330.429 225.063 542.033 0 211.604-86.01 403.249-225.063 542.033-138.991 138.722-330.949 224.525-542.924 224.525-211.975 0-403.933-85.804-542.924-224.525C342.022 1427.249 256.013 1235.604 256.013 1024c0-211.604 86.01-403.249 225.063-542.033C620.067 343.245 812.025 257.442 1024 257.442zm499.725 267.964C1395.878 397.808 1219.2 318.882 1024 318.882c-195.2 0-371.877 78.926-499.725 206.524C396.493 652.943 317.454 829.22 317.454 1024c0 194.78 79.038 371.058 206.821 498.594C652.122 1650.192 828.8 1729.118 1024 1729.118c195.2 0 371.877-78.926 499.725-206.524 127.782-127.537 206.821-303.814 206.821-498.594 0-194.78-79.038-371.058-206.821-498.594z"/><path id="_445080960" class="fil1" d="M1054.72 415.323c0-16.966-13.755-30.72-30.72-30.72-16.966 0-30.721 13.753-30.721 30.72V538.2c0 16.965 13.755 30.72 30.72 30.72 16.966 0 30.721-13.755 30.721-30.72V415.323z"/><path id="_445083624" class="fil1" d="M1054.72 1515.51c0-16.966-13.755-30.72-30.72-30.72-16.966 0-30.721 13.753-30.721 30.72v122.877c0 16.965 13.755 30.72 30.72 30.72 16.966 0 30.721-13.755 30.721-30.72V1515.51z"/><path id="_445081128" class="fil1" d="M1478.14 616.156c11.994-11.994 11.994-31.445 0-43.439-11.995-11.995-31.446-11.995-43.44 0l-86.888 86.887c-11.994 11.995-11.994 31.445 0 43.44 11.996 11.995 31.445 11.995 43.44 0l86.888-86.888z"/><path id="_445075704" class="fil1" d="M700.19 1394.11c11.994-11.994 11.994-31.445 0-43.439-11.995-11.995-31.446-11.995-43.44 0l-86.889 86.888c-11.994 11.996-11.994 31.445 0 43.44 11.996 11.994 31.446 11.994 43.44 0l86.889-86.889z"/><path id="_445082184" class="fil1" d="M1635.53 1057.58c16.966 0 30.72-13.755 30.72-30.72 0-16.966-13.753-30.721-30.72-30.721h-122.877c-16.965 0-30.72 13.755-30.72 30.72 0 16.966 13.755 30.721 30.72 30.721h122.877z"/><path id="_445080936" class="fil1" d="M535.346 1057.58c16.965 0 30.72-13.755 30.72-30.72 0-16.966-13.755-30.721-30.72-30.721H412.468c-16.966 0-30.72 13.755-30.72 30.72 0 16.966 13.753 30.721 30.72 30.721h122.878z"/><path id="_445082832" class="fil1" d="M1434.7 1481c11.994 11.994 31.445 11.994 43.44 0 11.994-11.995 11.994-31.445 0-43.44l-86.89-86.888c-11.993-11.995-31.444-11.995-43.439 0-11.994 11.994-11.994 31.445 0 43.439L1434.7 1481z"/><path id="_445072560" class="fil1" d="M656.749 703.045c11.994 11.994 31.445 11.994 43.44 0 11.994-11.995 11.994-31.445 0-43.44l-86.89-86.888c-11.993-11.995-31.444-11.995-43.439 0-11.994 11.994-11.994 31.445 0 43.439l86.889 86.889z"/><path id="_445075728" class="fil1" d="M1054.72 655.366c0-16.966-13.755-30.72-30.72-30.72-16.966 0-30.721 13.753-30.721 30.72V1024c0 16.965 13.755 30.72 30.72 30.72h337.914c16.966 0 30.72-13.755 30.72-30.72 0-16.965-13.754-30.72-30.72-30.72h-307.192V655.364z"/><circle id="_445078344" cx="1024" cy="1024" style="fill:#212121" r="79.007"/></g></g></svg>